<svg viewBox="0 0 1129 400" xmlns="http://www.w3.org/2000/svg"><g><g><g><g><g><line x1="50" y1="376.78224562253064" x2="45" y2="376.78224562253064" style="visibility: inherit;" fill="rgb(0, 0, 0)" stroke="rgb(204, 204, 204)" stroke-width="1px"></line><line x1="50" y1="329.7725152045397" x2="45" y2="329.7725152045397" style="visibility: inherit;" fill="rgb(0, 0, 0)" stroke="rgb(204, 204, 204)" stroke-width="1px"></line><line x1="50" y1="282.7627847865487" x2="45" y2="282.7627847865487" style="visibility: inherit;" fill="rgb(0, 0, 0)" stroke="rgb(204, 204, 204)" stroke-width="1px"></line><line x1="50" y1="235.75305436855774" x2="45" y2="235.75305436855774" style="visibility: inherit;" fill="rgb(0, 0, 0)" stroke="rgb(204, 204, 204)" stroke-width="1px"></line><line x1="50" y1="188.74332395056675" x2="45" y2="188.74332395056675" style="visibility: inherit;" fill="rgb(0, 0, 0)" stroke="rgb(204, 204, 204)" stroke-width="1px"></line><line x1="50" y1="141.73359353257578" x2="45" y2="141.73359353257578" style="visibility: inherit;" fill="rgb(0, 0, 0)" stroke="rgb(204, 204, 204)" stroke-width="1px"></line><line x1="50" y1="94.72386311458479" x2="45" y2="94.72386311458479" style="visibility: inherit;" fill="rgb(0, 0, 0)" stroke="rgb(204, 204, 204)" stroke-width="1px"></line><line x1="50" y1="47.71413269659384" x2="45" y2="47.71413269659384" style="visibility: inherit;" fill="rgb(0, 0, 0)" stroke="rgb(204, 204, 204)" stroke-width="1px"></line><line x1="50" y1="0.7044022786028188" x2="45" y2="0.7044022786028188" style="visibility: inherit;" fill="rgb(0, 0, 0)" stroke="rgb(204, 204, 204)" stroke-width="1px"></line></g><g transform="translate(40, 0)"><text x="0" y="376.78224562253064" dx="0em" dy="0.3em" style="text-anchor: end; visibility: hidden; font-family: Roboto, sans-serif; font-size: 12px; font-weight: 200;" fill="rgb(50, 49, 63)" stroke="none" stroke-width="1px">0</text><text x="0" y="329.7725152045397" dx="0em" dy="0.3em" style="text-anchor: end; visibility: inherit; font-family: Roboto, sans-serif; font-size: 12px; font-weight: 200;" fill="rgb(50, 49, 63)" stroke="none" stroke-width="1px">0.05</text><text x="0" y="282.7627847865487" dx="0em" dy="0.3em" style="text-anchor: end; visibility: inherit; font-family: Roboto, sans-serif; font-size: 12px; font-weight: 200;" fill="rgb(50, 49, 63)" stroke="none" stroke-width="1px">0.1</text><text x="0" y="235.75305436855774" dx="0em" dy="0.3em" style="text-anchor: end; visibility: inherit; font-family: Roboto, sans-serif; font-size: 12px; font-weight: 200;" fill="rgb(50, 49, 63)" stroke="none" stroke-width="1px">0.15</text><text x="0" y="188.74332395056675" dx="0em" dy="0.3em" style="text-anchor: end; visibility: inherit; font-family: Roboto, sans-serif; font-size: 12px; font-weight: 200;" fill="rgb(50, 49, 63)" stroke="none" stroke-width="1px">0.2</text><text x="0" y="141.73359353257578" dx="0em" dy="0.3em" style="text-anchor: end; visibility: inherit; font-family: Roboto, sans-serif; font-size: 12px; font-weight: 200;" fill="rgb(50, 49, 63)" stroke="none" stroke-width="1px">0.25</text><text x="0" y="94.72386311458479" dx="0em" dy="0.3em" style="text-anchor: end; visibility: inherit; font-family: Roboto, sans-serif; font-size: 12px; font-weight: 200;" fill="rgb(50, 49, 63)" stroke="none" stroke-width="1px">0.3</text><text x="0" y="47.71413269659384" dx="0em" dy="0.3em" style="text-anchor: end; visibility: inherit; font-family: Roboto, sans-serif; font-size: 12px; font-weight: 200;" fill="rgb(50, 49, 63)" stroke="none" stroke-width="1px">0.35</text><text x="0" y="0.7044022786028188" dx="0em" dy="0.3em" style="text-anchor: end; visibility: hidden; font-family: Roboto, sans-serif; font-size: 12px; font-weight: 200;" fill="rgb(50, 49, 63)" stroke="none" stroke-width="1px">0.4</text></g><line x1="50" y1="0" x2="50" y2="378" fill="rgb(0, 0, 0)" stroke="rgb(204, 204, 204)" stroke-width="1px"></line></g></g><g transform="translate(50, 0)" clip-path="url(#clip_0)"><clipPath id="clip_0"><rect width="1079" height="378"></rect></clipPath><g><g><g><line x1="1.0164380988596557" y1="0" x2="1.0164380988596557" y2="378" fill="rgb(0, 0, 0)" stroke="rgb(60, 60, 60)" stroke-width="1px" opacity="0.25"></line><line x1="86.40953426217943" y1="0" x2="86.40953426217943" y2="378" fill="rgb(0, 0, 0)" stroke="rgb(60, 60, 60)" stroke-width="1px" opacity="0.25"></line><line x1="171.80263042549925" y1="0" x2="171.80263042549925" y2="378" fill="rgb(0, 0, 0)" stroke="rgb(60, 60, 60)" stroke-width="1px" opacity="0.25"></line><line x1="257.195726588819" y1="0" x2="257.195726588819" y2="378" fill="rgb(0, 0, 0)" stroke="rgb(60, 60, 60)" stroke-width="1px" opacity="0.25"></line><line x1="342.5888227521388" y1="0" x2="342.5888227521388" y2="378" fill="rgb(0, 0, 0)" stroke="rgb(60, 60, 60)" stroke-width="1px" opacity="0.25"></line><line x1="427.98191891545866" y1="0" x2="427.98191891545866" y2="378" fill="rgb(0, 0, 0)" stroke="rgb(60, 60, 60)" stroke-width="1px" opacity="0.25"></line><line x1="513.3750150787785" y1="0" x2="513.3750150787785" y2="378" fill="rgb(0, 0, 0)" stroke="rgb(60, 60, 60)" stroke-width="1px" opacity="0.25"></line><line x1="598.7681112420981" y1="0" x2="598.7681112420981" y2="378" fill="rgb(0, 0, 0)" stroke="rgb(60, 60, 60)" stroke-width="1px" opacity="0.25"></line><line x1="684.161207405418" y1="0" x2="684.161207405418" y2="378" fill="rgb(0, 0, 0)" stroke="rgb(60, 60, 60)" stroke-width="1px" opacity="0.25"></line><line x1="769.5543035687377" y1="0" x2="769.5543035687377" y2="378" fill="rgb(0, 0, 0)" stroke="rgb(60, 60, 60)" stroke-width="1px" opacity="0.25"></line><line x1="854.9473997320575" y1="0" x2="854.9473997320575" y2="378" fill="rgb(0, 0, 0)" stroke="rgb(60, 60, 60)" stroke-width="1px" opacity="0.25"></line><line x1="940.3404958953774" y1="0" x2="940.3404958953774" y2="378" fill="rgb(0, 0, 0)" stroke="rgb(60, 60, 60)" stroke-width="1px" opacity="0.25"></line><line x1="1025.7335920586972" y1="0" x2="1025.7335920586972" y2="378" fill="rgb(0, 0, 0)" stroke="rgb(60, 60, 60)" stroke-width="1px" opacity="0.25"></line></g><g><line x1="0" y1="376.78224562253064" x2="1079" y2="376.78224562253064" fill="rgb(0, 0, 0)" stroke="rgb(60, 60, 60)" stroke-width="1px" opacity="0.25"></line><line x1="0" y1="329.7725152045397" x2="1079" y2="329.7725152045397" fill="rgb(0, 0, 0)" stroke="rgb(60, 60, 60)" stroke-width="1px" opacity="0.25"></line><line x1="0" y1="282.7627847865487" x2="1079" y2="282.7627847865487" fill="rgb(0, 0, 0)" stroke="rgb(60, 60, 60)" stroke-width="1px" opacity="0.25"></line><line x1="0" y1="235.75305436855774" x2="1079" y2="235.75305436855774" fill="rgb(0, 0, 0)" stroke="rgb(60, 60, 60)" stroke-width="1px" opacity="0.25"></line><line x1="0" y1="188.74332395056675" x2="1079" y2="188.74332395056675" fill="rgb(0, 0, 0)" stroke="rgb(60, 60, 60)" stroke-width="1px" opacity="0.25"></line><line x1="0" y1="141.73359353257578" x2="1079" y2="141.73359353257578" fill="rgb(0, 0, 0)" stroke="rgb(60, 60, 60)" stroke-width="1px" opacity="0.25"></line><line x1="0" y1="94.72386311458479" x2="1079" y2="94.72386311458479" fill="rgb(0, 0, 0)" stroke="rgb(60, 60, 60)" stroke-width="1px" opacity="0.25"></line><line x1="0" y1="47.71413269659384" x2="1079" y2="47.71413269659384" fill="rgb(0, 0, 0)" stroke="rgb(60, 60, 60)" stroke-width="1px" opacity="0.25"></line><line x1="0" y1="0.7044022786028188" x2="1079" y2="0.7044022786028188" fill="rgb(0, 0, 0)" stroke="rgb(60, 60, 60)" stroke-width="1px" opacity="0.25"></line></g></g></g><g><g><line x1="0" y1="376.78224562253064" x2="1079" y2="376.78224562253064" fill="rgb(0, 0, 0)" stroke="rgb(153, 153, 153)" stroke-width="1.5px"></line></g></g><g><g><line x1="1.0164380988596557" y1="0" x2="1.0164380988596557" y2="378" fill="rgb(0, 0, 0)" stroke="rgb(153, 153, 153)" stroke-width="1.5px"></line></g></g><g><g><g><g><g><path stroke="rgb(255, 112, 67)" stroke-width="2px" d="M15.53326444662402,34.68182012858198L30.05009079438838,95.3370560448537L44.56691714215274,122.84285901469597L59.08374348991711,139.47912857953744L73.60056983768148,153.59304869599424L88.11739618544584,172.38880321320744L102.6342225332102,184.14746211841535L117.15104888097459,197.69764801499974L131.66787522873895,208.22486079471963L146.1847015765033,216.04087567308238L160.70152792426765,228.10205687304438L175.218354272032,233.17174236185383L189.73518061979638,240.52392832478185L204.25200696756076,248.20570990651873L218.7688333153251,253.72131934954595L233.28565966308946,260.883224009848L247.80248601085384,265.82142803543593L262.3193123586182,268.59714739123774L276.83613870638254,274.2556393506535L291.3529650541469,278.9406584670242L305.86979140191124,284.13209002628076L320.3866177496756,288.31313761484114L334.90344409744006,287.81976555051773L349.4202704452044,292.1968999280435L363.9370967929688,295.13091040435444L378.45392314073314,296.09350353223465L392.9707494884975,297.1037236712522L407.4875758362619,301.6223729542758L422.0044021840262,304.7102429856308L436.5212285317906,303.6873336021449L451.038054879555,307.7983299511956L465.5548812273193,311.71108632925416L480.0717075750837,315.97112492131185L494.58853392284806,317.2814521658939L509.1053602706124,319.73626073909463L523.6221866183768,321.4151116156394L538.1390129661412,323.91520778848695L552.6558393139055,325.12480439873246L567.17266566167,326.4868406996906L581.6894920094343,328.44222917984735L596.2063183571986,331.1925189947048L610.723144704963,333.0367767380892L625.2399710527274,333.66381026773865L639.7567974004917,332.16580932927855L654.2736237482561,334.60976972915194L668.7904500960204,333.57498298813704L683.3072764437848,336.68974492462013L697.8241027915492,334.9067744184057L712.3409291393135,331.17490743727177L726.8577554870778,333.8434347417817L741.3745818348423,336.4842888334627L755.8914081826066,337.0404817734574L770.4082345303709,338.2048306452L784.9250608781354,338.276614682619" style="fill: none;" fill="none"></path></g></g></g></g><g opacity="0.2"><g><g><g><path stroke="rgb(255, 112, 67)" stroke-width="2px" d="M15.53326444662402,34.68182012858198L30.05009079438838,137.79572118624392L44.56691714215274,155.57476454880822L59.08374348991711,164.9825298224396L73.60056983768148,178.61844045448373L88.11739618544584,208.87455800938605L102.6342225332102,208.35641248697667L117.15104888097459,226.71094426680267L131.66787522873895,231.3723205896721L146.1847015765033,233.54230013961106L160.70152792426765,255.44984980166055L175.218354272032,244.76710525951128L189.73518061979638,257.44158023085504L204.25200696756076,265.95620154692756L218.7688333153251,266.5037890662908L233.28565966308946,277.5149978571121L247.80248601085384,277.3056115304528L262.3193123586182,275.058759157632L276.83613870638254,287.4372870703727L291.3529650541469,289.8599087954579L305.86979140191124,296.23576482245903L320.3866177496756,298.06346627219295L334.90344409744006,286.6690141662757L349.4202704452044,302.4074182196236L363.9370967929688,301.9756232792867L378.45392314073314,298.3392529531531L392.9707494884975,299.46068271578713L407.4875758362619,312.16519510871984L422.0044021840262,311.91494163710945L436.5212285317906,301.30062189302015L451.038054879555,317.39043856097413L465.5548812273193,320.84070716617646L480.0717075750837,325.9111051883412L494.58853392284806,320.33885876627795L509.1053602706124,325.46411641231725L523.6221866183768,325.3324154880416L538.1390129661412,329.74875005610625L552.6558393139055,327.9471912503485L567.17266566167,329.66492127248796L581.6894920094343,333.00479815035345L596.2063183571986,337.6098578102414L610.723144704963,337.340042888121L625.2399710527274,335.12688804714577L639.7567974004917,328.6704745695213L654.2736237482561,340.31234312378785L668.7904500960204,331.160480850804L683.3072764437848,343.95752223202226L697.8241027915492,330.746510122042L712.3409291393135,322.4672181342275L726.8577554870778,340.06999829233L741.3745818348423,342.6462816032303L755.8914081826066,338.33826528377347L770.4082345303709,340.9216446553243L784.9250608781354,338.44411076889685" style="fill: none;" fill="none"></path></g></g></g></g></g></g><g transform="translate(50, 378)" clip-path="url(#clip_1)"><clipPath id="clip_1"><rect width="1079" height="22"></rect></clipPath><g><g><line x1="1.0164380988596557" y1="0" x2="1.0164380988596557" y2="5" style="visibility: inherit;" fill="rgb(0, 0, 0)" stroke="rgb(204, 204, 204)" stroke-width="1px"></line><line x1="86.40953426217943" y1="0" x2="86.40953426217943" y2="5" style="visibility: inherit;" fill="rgb(0, 0, 0)" stroke="rgb(204, 204, 204)" stroke-width="1px"></line><line x1="171.80263042549925" y1="0" x2="171.80263042549925" y2="5" style="visibility: inherit;" fill="rgb(0, 0, 0)" stroke="rgb(204, 204, 204)" stroke-width="1px"></line><line x1="257.195726588819" y1="0" x2="257.195726588819" y2="5" style="visibility: inherit;" fill="rgb(0, 0, 0)" stroke="rgb(204, 204, 204)" stroke-width="1px"></line><line x1="342.5888227521388" y1="0" x2="342.5888227521388" y2="5" style="visibility: inherit;" fill="rgb(0, 0, 0)" stroke="rgb(204, 204, 204)" stroke-width="1px"></line><line x1="427.98191891545866" y1="0" x2="427.98191891545866" y2="5" style="visibility: inherit;" fill="rgb(0, 0, 0)" stroke="rgb(204, 204, 204)" stroke-width="1px"></line><line x1="513.3750150787785" y1="0" x2="513.3750150787785" y2="5" style="visibility: inherit;" fill="rgb(0, 0, 0)" stroke="rgb(204, 204, 204)" stroke-width="1px"></line><line x1="598.7681112420981" y1="0" x2="598.7681112420981" y2="5" style="visibility: inherit;" fill="rgb(0, 0, 0)" stroke="rgb(204, 204, 204)" stroke-width="1px"></line><line x1="684.161207405418" y1="0" x2="684.161207405418" y2="5" style="visibility: inherit;" fill="rgb(0, 0, 0)" stroke="rgb(204, 204, 204)" stroke-width="1px"></line><line x1="769.5543035687377" y1="0" x2="769.5543035687377" y2="5" style="visibility: inherit;" fill="rgb(0, 0, 0)" stroke="rgb(204, 204, 204)" stroke-width="1px"></line><line x1="854.9473997320575" y1="0" x2="854.9473997320575" y2="5" style="visibility: inherit;" fill="rgb(0, 0, 0)" stroke="rgb(204, 204, 204)" stroke-width="1px"></line><line x1="940.3404958953774" y1="0" x2="940.3404958953774" y2="5" style="visibility: inherit;" fill="rgb(0, 0, 0)" stroke="rgb(204, 204, 204)" stroke-width="1px"></line><line x1="1025.7335920586972" y1="0" x2="1025.7335920586972" y2="5" style="visibility: inherit;" fill="rgb(0, 0, 0)" stroke="rgb(204, 204, 204)" stroke-width="1px"></line></g><g transform="translate(0, 8)"><text x="1.0164380988596557" y="0" dx="0em" dy="0.95em" style="text-anchor: middle; visibility: hidden; font-family: Roboto, sans-serif; font-size: 12px; font-weight: 200;" fill="rgb(50, 49, 63)" stroke="none" stroke-width="1px">0</text><text x="86.40953426217943" y="0" dx="0em" dy="0.95em" style="text-anchor: middle; visibility: inherit; font-family: Roboto, sans-serif; font-size: 12px; font-weight: 200;" fill="rgb(50, 49, 63)" stroke="none" stroke-width="1px">500</text><text x="171.80263042549925" y="0" dx="0em" dy="0.95em" style="text-anchor: middle; visibility: inherit; font-family: Roboto, sans-serif; font-size: 12px; font-weight: 200;" fill="rgb(50, 49, 63)" stroke="none" stroke-width="1px">1k</text><text x="257.195726588819" y="0" dx="0em" dy="0.95em" style="text-anchor: middle; visibility: inherit; font-family: Roboto, sans-serif; font-size: 12px; font-weight: 200;" fill="rgb(50, 49, 63)" stroke="none" stroke-width="1px">1.5k</text><text x="342.5888227521388" y="0" dx="0em" dy="0.95em" style="text-anchor: middle; visibility: inherit; font-family: Roboto, sans-serif; font-size: 12px; font-weight: 200;" fill="rgb(50, 49, 63)" stroke="none" stroke-width="1px">2k</text><text x="427.98191891545866" y="0" dx="0em" dy="0.95em" style="text-anchor: middle; visibility: inherit; font-family: Roboto, sans-serif; font-size: 12px; font-weight: 200;" fill="rgb(50, 49, 63)" stroke="none" stroke-width="1px">2.5k</text><text x="513.3750150787785" y="0" dx="0em" dy="0.95em" style="text-anchor: middle; visibility: inherit; font-family: Roboto, sans-serif; font-size: 12px; font-weight: 200;" fill="rgb(50, 49, 63)" stroke="none" stroke-width="1px">3k</text><text x="598.7681112420981" y="0" dx="0em" dy="0.95em" style="text-anchor: middle; visibility: inherit; font-family: Roboto, sans-serif; font-size: 12px; font-weight: 200;" fill="rgb(50, 49, 63)" stroke="none" stroke-width="1px">3.5k</text><text x="684.161207405418" y="0" dx="0em" dy="0.95em" style="text-anchor: middle; visibility: inherit; font-family: Roboto, sans-serif; font-size: 12px; font-weight: 200;" fill="rgb(50, 49, 63)" stroke="none" stroke-width="1px">4k</text><text x="769.5543035687377" y="0" dx="0em" dy="0.95em" style="text-anchor: middle; visibility: inherit; font-family: Roboto, sans-serif; font-size: 12px; font-weight: 200;" fill="rgb(50, 49, 63)" stroke="none" stroke-width="1px">4.5k</text><text x="854.9473997320575" y="0" dx="0em" dy="0.95em" style="text-anchor: middle; visibility: inherit; font-family: Roboto, sans-serif; font-size: 12px; font-weight: 200;" fill="rgb(50, 49, 63)" stroke="none" stroke-width="1px">5k</text><text x="940.3404958953774" y="0" dx="0em" dy="0.95em" style="text-anchor: middle; visibility: inherit; font-family: Roboto, sans-serif; font-size: 12px; font-weight: 200;" fill="rgb(50, 49, 63)" stroke="none" stroke-width="1px">5.5k</text><text x="1025.7335920586972" y="0" dx="0em" dy="0.95em" style="text-anchor: middle; visibility: inherit; font-family: Roboto, sans-serif; font-size: 12px; font-weight: 200;" fill="rgb(50, 49, 63)" stroke="none" stroke-width="1px">6k</text></g><line x1="0" y1="0" x2="1079" y2="0" fill="rgb(0, 0, 0)" stroke="rgb(204, 204, 204)" stroke-width="1px"></line></g></g></g></g></svg>